<?xml version="1.0" standalone="no"?>
<!DOCTYPE svg PUBLIC "-//W3C//DTD SVG 20010904//EN"
 "http://www.w3.org/TR/2001/REC-SVG-20010904/DTD/svg10.dtd">
<svg version="1.0" xmlns="http://www.w3.org/2000/svg"
 width="255.000000pt" height="255.000000pt" viewBox="0 0 255.000000 255.000000"
 preserveAspectRatio="xMidYMid meet">
<metadata>
Created by potrace 1.14, written by Peter Selinger 2001-2017
</metadata>
<g transform="translate(0.000000,255.000000) scale(0.100000,-0.100000)"
fill="#000000" stroke="none">
<path d="M39 1868 c-1 -2 -3 -23 -4 -48 -1 -25 -5 -110 -9 -190 -5 -80 -9
-180 -11 -224 -2 -43 -6 -129 -10 -192 l-6 -114 38 -1 c21 -1 74 -3 118 -5 44
-1 154 -6 245 -9 90 -4 167 -8 171 -11 3 -2 4 -86 2 -187 l-5 -184 28 -6 c30
-5 1276 0 1409 6 44 3 159 8 255 12 96 4 191 9 210 10 19 2 45 4 58 4 13 1 20
5 17 11 -4 6 -11 7 -17 4 -6 -4 -8 1 -6 12 2 11 -5 27 -16 37 -10 9 -15 17
-10 17 5 0 -6 13 -24 29 -17 17 -33 38 -34 48 0 10 -2 25 -2 33 -1 8 -7 14
-14 12 -7 -1 -12 5 -12 13 0 8 -9 22 -19 32 -16 15 -18 25 -12 54 4 19 4 46
-1 59 -5 13 -9 39 -10 57 -1 18 -5 33 -11 33 -5 0 -6 11 -3 25 4 15 2 25 -4
25 -6 0 -8 11 -6 25 3 17 0 25 -10 25 -8 0 -13 6 -12 13 2 6 -4 11 -14 11 -13
-1 -16 8 -14 53 1 34 -4 59 -12 65 -7 6 -11 19 -10 29 2 9 -8 27 -21 38 -13
12 -20 21 -16 21 4 0 0 9 -10 20 -10 11 -15 23 -12 27 4 3 0 17 -9 30 -8 13
-14 32 -13 41 3 33 -1 44 -15 39 -7 -3 -19 0 -25 6 -6 6 -11 8 -11 4 0 -4 -9
2 -20 13 -12 12 -18 25 -15 30 4 6 -3 10 -14 10 -12 0 -21 4 -21 9 0 9 -48 26
-63 22 -5 -1 -21 8 -37 19 -23 17 -41 20 -111 17 -66 -1 -87 -6 -97 -19 -13
-18 -52 -25 -52 -10 0 4 -21 15 -46 26 -24 10 -51 24 -58 31 -10 11 -135 15
-587 19 -555 5 -673 8 -881 21 -54 3 -99 4 -99 3z"/>
</g>
</svg>
